<mxfile host="Electron" agent="Mozilla/5.0 (Macintosh; Intel Mac OS X 10_15_7) AppleWebKit/537.36 (KHTML, like Gecko) draw.io/24.7.17 Chrome/128.0.6613.36 Electron/32.0.1 Safari/537.36" version="24.7.17">
  <diagram name="Page-1" id="PvDxjVlCoJDjkm9xMNz4">
    <mxGraphModel dx="954" dy="674" grid="1" gridSize="10" guides="1" tooltips="1" connect="1" arrows="1" fold="1" page="1" pageScale="1" pageWidth="1600" pageHeight="900" math="0" shadow="0">
      <root>
        <mxCell id="0" />
        <mxCell id="1" parent="0" />
        <mxCell id="dW4sdrtdhDurY4b9q8so-7" value="" style="edgeStyle=orthogonalEdgeStyle;rounded=0;orthogonalLoop=1;jettySize=auto;html=1;" edge="1" parent="1" source="dW4sdrtdhDurY4b9q8so-1" target="dW4sdrtdhDurY4b9q8so-5">
          <mxGeometry relative="1" as="geometry" />
        </mxCell>
        <mxCell id="dW4sdrtdhDurY4b9q8so-8" style="edgeStyle=orthogonalEdgeStyle;rounded=0;orthogonalLoop=1;jettySize=auto;html=1;entryX=0.5;entryY=0;entryDx=0;entryDy=0;" edge="1" parent="1" source="dW4sdrtdhDurY4b9q8so-1" target="dW4sdrtdhDurY4b9q8so-6">
          <mxGeometry relative="1" as="geometry">
            <Array as="points">
              <mxPoint x="480" y="400" />
              <mxPoint x="320" y="400" />
            </Array>
          </mxGeometry>
        </mxCell>
        <mxCell id="dW4sdrtdhDurY4b9q8so-9" style="edgeStyle=orthogonalEdgeStyle;rounded=0;orthogonalLoop=1;jettySize=auto;html=1;entryX=0.5;entryY=0;entryDx=0;entryDy=0;" edge="1" parent="1" source="dW4sdrtdhDurY4b9q8so-1" target="dW4sdrtdhDurY4b9q8so-4">
          <mxGeometry relative="1" as="geometry">
            <Array as="points">
              <mxPoint x="480" y="400" />
              <mxPoint x="630" y="400" />
            </Array>
          </mxGeometry>
        </mxCell>
        <mxCell id="dW4sdrtdhDurY4b9q8so-1" value="Octree" style="rounded=0;whiteSpace=wrap;html=1;" vertex="1" parent="1">
          <mxGeometry x="420" y="320" width="120" height="60" as="geometry" />
        </mxCell>
        <mxCell id="dW4sdrtdhDurY4b9q8so-2" value="create_partitions()" style="ellipse;whiteSpace=wrap;html=1;" vertex="1" parent="1">
          <mxGeometry x="570" y="660" width="120" height="80" as="geometry" />
        </mxCell>
        <mxCell id="dW4sdrtdhDurY4b9q8so-11" value="" style="edgeStyle=orthogonalEdgeStyle;rounded=0;orthogonalLoop=1;jettySize=auto;html=1;" edge="1" parent="1" source="dW4sdrtdhDurY4b9q8so-3" target="dW4sdrtdhDurY4b9q8so-2">
          <mxGeometry relative="1" as="geometry" />
        </mxCell>
        <mxCell id="dW4sdrtdhDurY4b9q8so-3" value="split_sort()" style="ellipse;whiteSpace=wrap;html=1;" vertex="1" parent="1">
          <mxGeometry x="570" y="550" width="120" height="80" as="geometry" />
        </mxCell>
        <mxCell id="dW4sdrtdhDurY4b9q8so-10" value="" style="edgeStyle=orthogonalEdgeStyle;rounded=0;orthogonalLoop=1;jettySize=auto;html=1;" edge="1" parent="1" source="dW4sdrtdhDurY4b9q8so-4" target="dW4sdrtdhDurY4b9q8so-3">
          <mxGeometry relative="1" as="geometry" />
        </mxCell>
        <mxCell id="dW4sdrtdhDurY4b9q8so-4" value="construct_subtrees()" style="ellipse;whiteSpace=wrap;html=1;" vertex="1" parent="1">
          <mxGeometry x="570" y="440" width="120" height="80" as="geometry" />
        </mxCell>
        <mxCell id="dW4sdrtdhDurY4b9q8so-5" value="box()" style="ellipse;whiteSpace=wrap;html=1;" vertex="1" parent="1">
          <mxGeometry x="420" y="440" width="120" height="80" as="geometry" />
        </mxCell>
        <mxCell id="dW4sdrtdhDurY4b9q8so-6" value="centroid_box()" style="ellipse;whiteSpace=wrap;html=1;" vertex="1" parent="1">
          <mxGeometry x="260" y="440" width="120" height="80" as="geometry" />
        </mxCell>
      </root>
    </mxGraphModel>
  </diagram>
</mxfile>
